<svg xmlns="http://www.w3.org/2000/svg" width="1200" height="600" viewBox="0 0 1200 600">
  <defs>
    <linearGradient id="g" x1="0" y1="0" x2="1" y2="1">
      <stop offset="0" stop-color="#fbbf24" stop-opacity="0.28"/>
      <stop offset="1" stop-color="#22d3ee" stop-opacity="0.18"/>
    </linearGradient>
  </defs>
  <rect width="1200" height="600" fill="#0b1220"/>
  <rect width="1200" height="600" fill="url(#g)"/>
  <g fill="none" stroke="#fbbf24" stroke-opacity="0.75" stroke-width="12">
    <path d="M320 240 C320 170 380 150 450 150 H560 C630 150 690 170 690 240 V270 H450 C380 270 320 290 320 360 C320 430 380 450 450 450 H600 C670 450 730 430 730 360 V330 H520 C450 330 390 310 390 240" />
    <circle cx="520" cy="205" r="10" fill="#fbbf24"/>
    <circle cx="560" cy="395" r="10" fill="#fbbf24"/>
  </g>
  <g fill="#e5e7eb" opacity="0.92" font-family="Arial" font-size="64" font-weight="800">
    <text x="760" y="360">Python</text>
  </g>
</svg>
